<svg id="eXhRHcLS2E11" xmlns="http://www.w3.org/2000/svg" xmlns:xlink="http://www.w3.org/1999/xlink" viewBox="0 0 207.69 130.67" shape-rendering="geometricPrecision" text-rendering="geometricPrecision"><path d="M351.18,245.26c.324939,1.884472.762388,3.747804,1.31,5.58c3.45,9.32,13.4,15.08,22.88,13.34c10.42-1.91,17.68-10.31,17.72-20.61c0-12.15,0-24.3,0-36.44c0-2.27-.29-5.2,3-5.16s2.88,2.9,2.88,5.21c0,12.15,0,24.3,0,36.45c0,15.65-12.41,27.22-28.55,26.73-14.34-.44-26-13.52-25.2-28.35.51-9.89,9.49-18.31,19.95-18.7c9.72-.36,18.91,7.25,20.27,16.8.47,3.28-1,5.09-4.48,5.11-8.68.06-17.35,0-26,0Zm1.26-6.22h26c-1.731745-5.901942-7.22151-9.897111-13.37-9.73-5.86.27-11.68,4.69-12.63,9.69Z" transform="translate(-191.259995-201.789993)" fill="#ffd20d"/><path d="M197.61,245.65c1.22,6.06,4.24,9.87,9.37,11.84c4.937778,2.054572,10.622121,1.012508,14.51-2.66c1.95-1.69,3.74-3.71,6.38-1.47c1.71,1.45.95,3.36-2.19,6.13-6.877579,5.906792-16.776111,6.714176-24.52,2-7.744812-4.723928-11.494839-13.952889-9.24-22.74c2.387308-8.719232,10.056977-14.953853,19.08-15.51c9.836702-.570637,18.707458,5.884628,21.19,15.42c1.23,4.86-.4,7-5.41,7q-12.57,0-25.14,0Zm.87-6.26h24.46c.78,0,1.56-.11,2.35-.17-1-5.29-6.41-9.63-12.4-10-6.557218-.281565-12.478448,3.897402-14.41,10.17Z" transform="translate(-191.259995-201.789993)" fill="#ffd20d"/><path d="M246.2,252.81c0-6.67-.07-13.35,0-20c0-2.29-.65-3.37-3.07-3.1-1.18.13-2.57.37-3.54-.1-1.13-.56-2.63-1.85-2.62-2.8s1.45-2.38,2.59-2.87s2.75-.22,4.14-.14c1.81.12,2.43-.68,2.53-2.43.085245-2.084951.383463-4.155721.89-6.18c2.48-9.24,10.87-14.59,20.34-13.15c2,.3,3.58,1,3.34,3.3s-1.85,2.77-3.89,2.76c-9.15-.06-14.39,4.81-14.27,13c0,1.87.56,2.73,2.56,2.66c3.19-.11,6.38,0,9.58,0c2.09,0,3.59.8,3.53,3.08c0,2.1-1.5,2.86-3.45,2.86-3,0-6,.14-9,0-2.45-.14-3.28.7-3.26,3.2.1,12.55.07,25.11,0,37.66.022401,1.990953-.141648,3.979631-.49,5.94-.469414,3.268943-2.82137,5.954093-6,6.85-3.078432,1.127102-6.526228.491175-9-1.66-1.37-1.19-2.35-2.68-1.09-4.42s2.87-1.67,4.7-.5c2.95,1.9,5.25.62,5.31-3c.11-7,0-14,0-20.92Z" transform="matrix(1 0 0 1.049367-191.259995-201.789993)" fill="#ffd20d"/><path d="M331.68,230.51c.07-1.56-.2-2.81.26-3.66.62-1.15,1.71-2.58,2.78-2.76.81-.13,2.06,1.41,2.82,2.43.39.53.17,1.55.17,2.34q0,14.49,0,29c0,.3,0,.6,0,.89-.17,2.17.1,4.83-3,4.94s-3.14-2.41-3.22-4.68c-.05645-.389113-.153651-.771213-.29-1.14-8.74,9.93-23,6.27-28.82-.2-7.479827-8.199351-7.067407-20.864635.93-28.56c7.86-7.66,19.56-7.25,28.37,1.4ZM331.52,244c.10851-3.880643-1.36321-7.639048-4.077982-10.414148s-6.439928-4.329057-10.322018-4.305852c-7.830563.177903-14.148385,6.460552-14.37,14.29.027318,7.946434,6.45364,14.386144,14.4,14.43c3.772766.085971,7.421511-1.349374,10.124523-3.982789s4.233027-6.243486,4.245477-10.017211Z" transform="translate(-191.259995-201.789993)" fill="#ffd20d"/><path d="M329.13,280.65h64.93c.396271-.025053.793729-.025053,1.19,0c1.36.17,3.43-.61,3.4,1.64c0,.55-2.25,1.54-3.47,1.55q-50,.13-99.93.08h-31.12c-.684237.126115-1.385763.126115-2.07,0-1.037902-.493234-2.040312-1.057925-3-1.69c1-.53,2-1.51,3.07-1.51c22.34-.09,44.67-.07,67-.07Z" transform="translate(-191.259995-201.789993)" fill="#ffd20d"/><path d="M279.46,228.89c2.85-1.8,5.42-3.65,8.21-5.1c1.91-1,4.29-1.38,5.29,1.3s-.95,3.65-3.16,4.36c-6.81,2.18-10.39,7-10.54,14.24-.11,5.38-.05,10.76,0,16.14c0,2.09-.35,3.93-3,3.9s-3-1.84-3-3.93q0-15.69,0-31.38c0-2.17.32-4.24,2.94-4.34s3.13,1.92,3.07,4.12c.017303.240263.081871.474747.19.69Z" transform="translate(-191.259995-201.789993)" fill="#ffd20d"/><path d="M328.13,321.13c.08,5.88,7.67,10,13.31,5.88c1.26-.92,2.7-3.09,4.19-1.06s-1,3.11-2.25,4.06c-4.311612,3.088453-10.124647,3.037522-14.381482-.126003s-5.982182-8.714844-4.268518-13.733997c1.80184-5.171406,6.800982-8.532687,12.27-8.25c5.250122.166929,9.773321,3.748133,11.14,8.82.89,3.08,0,4.33-3.16,4.38-4.49.07-9,0-13.46,0Zm.36-3.91h15.61c-1.22-3.83-3.87-5.75-7.62-5.77s-6.62,1.9-7.99,5.77Z" transform="translate(-191.259995-201.789993)" fill="#ffd20d"/><path d="M394.77,329c-5.82,4.27-12.37,3.95-16.77-1.07-4.110182-4.714465-3.909986-11.795294.46-16.27c4.52-4.68,11.07-4.72,16.77.06.064897-.559302.223799-1.103625.47-1.61.537342-.603399,1.126235-1.158833,1.76-1.66.49.65,1.39,1.28,1.4,1.94q.17,9.54,0,19.11c0,.75-1,1.49-1.48,2.24Zm-16.34-9.19c-.072214,3.450818,1.942299,6.605054,5.103479,7.990803s6.845915.729864,9.334749-1.661593s3.291183-6.047096,2.032636-9.261038-4.329912-5.352674-7.780864-5.418172c-2.259412-.056311-4.447823.791652-6.079403,2.355641s-2.57132,3.714586-2.610597,5.974359Z" transform="translate(-191.259995-201.789993)" fill="#ffd20d"/><path d="M265.9,311.66c.1-.54.05-1.09.3-1.4.599832-.666416,1.241105-1.294329,1.92-1.88.5.77,1.41,1.51,1.44,2.29.15,4.08.08,8.16.08,12.24.116928,1.789082.093523,3.584574-.07,5.37-.351281,1.218846-.869529,2.383221-1.54,3.46l-2.72-2.8c-2.226527,2.199926-5.31426,3.298764-8.43,3-3.438034-.148468-6.634167-1.810604-8.73-4.54-3.705168-4.863915-3.203318-11.726825,1.17-16c4.41-4.4,10.68-4.4,16.58.26Zm.22,8.41c.033488-4.717158-3.743261-8.578728-8.46-8.65-3.107197-.141805-6.045261,1.418942-7.667264,4.072974s-1.670779,5.980558-.127287,8.681005s4.434532,4.346665,7.544551,4.296021c4.711006.050717,8.590032-3.690248,8.71-8.4Z" transform="translate(-191.259995-201.789993)" fill="#ffd20d"/><path d="M279.57,310.2c2.41-2.77,5.78-3.05,9.41-1.53c4,1.68,6,4.9,6.15,9.11.17,3.78.17,7.57,0,11.34-.05.92-1.11,1.79-1.7,2.68-.57-.9-1.56-1.76-1.62-2.68-.2-3.48-.05-7-.11-10.45-.07-4.44-2.72-7.53-6.4-7.57-3.86,0-6.59,3.08-6.64,7.65c0,3.38.12,6.78-.11,10.15-.06,1-1.13,1.91-1.74,2.86-.55-.93-1.56-1.86-1.58-2.81-.15-5.77-.14-11.55,0-17.32c0-1,.77-2.07,1.18-3.11Z" transform="translate(-191.259995-201.789993)" fill="#ffd20d"/><path d="M316,329.7c-2.8,3-6.37,3.59-10.28,1.58s-5.55-5.48-5.5-9.82c0-3.28-.15-6.57.09-9.84.08-1.08,1.15-2.1,1.76-3.14.55,1,1.51,2,1.58,3c.2,3.37,0,6.76.08,10.14.05,4.28,2.59,7.22,6.24,7.31s6.55-2.68,6.8-6.87c.22-3.67,0-7.37.17-11c.05-.91,1-1.78,1.57-2.67.52.92,1.48,1.82,1.5,2.74.13,5.86.12,11.74,0,17.6c0,1-.81,2-1.25,3Z" transform="translate(-191.259995-201.789993)" fill="#ffd20d"/><path d="M361.51,326.11c2.41-5.23,4.44-9.64,6.48-14c.271411-.851473.687497-1.649817,1.23-2.36.683373-.428146,1.444624-.717013,2.24-.85.23.77.83,1.68.61,2.3-.77,2.14-1.81,4.18-2.77,6.26-1.91,4.15-3.78,8.32-5.79,12.42-.39.79-1.32,1.81-2,1.82s-1.61-1-2-1.82c-2.87-6-5.68-12-8.37-18.13-.32-.74.24-1.87.39-2.83.9.52,2.26.81,2.65,1.59c2.43,4.82,4.65,9.8,7.33,15.6Z" transform="translate(-191.259995-201.789993)" fill="#ffd20d"/><path d="M202.18,325.94c2.12-4.52,3.93-8.37,5.73-12.23.300139-.945308.730976-1.844008,1.28-2.67.904737-.825948,1.889614-1.559581,2.94-2.19.05,1.15.46,2.44.09,3.44-1,2.6-2.26,5.08-3.43,7.61-1.5,3.25-2.93,6.53-4.55,9.72-.468869.913291-1.254583,1.624344-2.21,2-.41.13-1.52-1.08-1.9-1.88-2.82-5.92-5.61-11.87-8.23-17.88-.36-.81.25-2,.42-3.06.88.6,2.15,1,2.58,1.84c2,3.89,3.73,7.91,5.58,11.87.41.93.87,1.79,1.7,3.43Z" transform="translate(-191.259995-201.789993)" fill="#ffd20d"/><path d="M227.05,313.3c0-5-.09-9.94.07-14.9c0-1,1-2,1.55-3c.62,1,1.76,2.1,1.77,3.17q.19,14.91,0,29.82c0,1.13-1,3.19-1.59,3.21-2.29.08-1.64-2-1.66-3.34-.08-5,0-9.94,0-14.91Z" transform="translate(-191.259995-201.789993)" fill="#ffd20d"/><path d="M240.4,313.63c0,5.07.09,10.15-.08,15.22c0,1-1.1,1.93-1.7,2.9-.54-.94-1.54-1.87-1.55-2.82q-.19-15.37,0-30.74c0-1,1.17-1.9,1.79-2.85.54.92,1.5,1.83,1.53,2.77.15,5.17.07,10.35.07,15.52Z" transform="translate(-191.259995-201.789993)" fill="#ffd20d"/><path d="M209.5,280.64c5,0,10-.09,15,.08c1,0,1.93,1.1,2.9,1.68-1,.51-1.91,1.45-2.88,1.46q-15.1.15-30.22,0c-1,0-1.92-1.11-2.89-1.71c1-.49,1.9-1.37,2.87-1.4c5.08-.14,10.17-.07,15.26-.07Z" transform="translate(-191.259995-201.789993)" fill="#ffd20d"/><path d="M220.52,319.9c0,3.18.09,6.36-.07,9.52c0,.79-.89,1.53-1.37,2.3-.66-.72-1.88-1.44-1.9-2.18q-.23-9.51,0-19c0-.77,1.17-1.52,1.8-2.27.52.81,1.44,1.6,1.49,2.45.18,3.06.07,6.14.07,9.21Z" transform="translate(-191.259995-201.789993)" fill="#ffd20d"/><path d="M221.9,302.87c-1.4,1-2.31,2.12-2.94,2-.86-.18-1.51-1.33-2.25-2.06.73-.64,1.42-1.73,2.19-1.79s1.59.91,3,1.85Z" transform="matrix(1 0 0 0.993667-191.259995-201.789993)" fill="#ffd20d"/></svg>
